<?xml version="1.0" standalone="no"?><!DOCTYPE svg PUBLIC "-//W3C//DTD SVG 1.1//EN" "http://www.w3.org/Graphics/SVG/1.1/DTD/svg11.dtd" ><svg xmlns="http://www.w3.org/2000/svg"><metadata>Generated by Glyphter</metadata><defs><font id="zorro" horiz-adv-x="0"><font-face units-per-em="1024" ascent="1024" descent="0" font-family="zorro" font-weight="normal" /><missing-glyph horiz-adv-x="0" /><glyph unicode="&#x0041;" d="M661.83,905.062C646.694,920.166,626.63,928.485,605.255,928.485C583.879,928.485,563.815,920.166,548.615,905.03C548.615,905.03,503.496,859.847,503.496,859.847C488.36,844.743,480.009,824.647,480.009,803.239C480.009,788.168,484.136,773.736,491.88,761.224C491.88,761.224,57.423,587.179,57.423,587.179C28.368,574.411,7.536,548.203,1.68,517.132C-4.24,485.868,5.68,453.805,28.368,431.149C28.368,431.149,435.401,28.596,435.401,28.596C452.937,11.06,476.233,1.108,500.84,0.532C501.416,0.5,502.76,0.5,503.336,0.5C509.8,0.5,516.36,1.172,522.856,2.484C554.663,9.076,580.711,31.06,592.519,60.979C592.519,60.979,763.46,489.004,763.46,489.004C776.324,480.524,791.46,475.981,807.203,475.981C828.643,475.981,848.707,484.332,863.779,499.436C863.779,499.436,908.802,544.491,908.802,544.491C924.066,559.659,932.417,579.787,932.417,601.227C932.417,622.666,924.034,642.826,908.994,657.802C908.994,657.802,661.83,905.062,661.83,905.062C661.83,905.062,661.83,905.062,661.83,905.062M533.096,84.755C529.128,74.739,520.392,67.347,509.832,65.171C507.4,64.659,504.936,64.467,502.504,64.499C494.376,64.691,486.536,67.955,480.68,73.843C480.68,73.843,73.391,476.653,73.391,476.653C65.903,484.108,62.607,494.796,64.591,505.228C66.543,515.596,73.519,524.364,83.215,528.588C83.215,528.588,282.156,608.267,282.156,608.267C416.202,563.691,550.279,606.635,684.389,463.565C684.389,463.565,533.096,84.755,533.096,84.755C533.096,84.755,533.096,84.755,533.096,84.755M863.747,589.931C863.747,589.931,818.499,544.715,818.499,544.715C812.259,538.444,802.115,538.444,795.876,544.715C795.876,544.715,739.3,601.259,739.3,601.259C739.3,601.259,693.477,486.412,693.477,486.412C693.477,486.412,697.285,496.108,697.285,496.108C600.967,592.267,503.08,604.395,414.762,615.242C386.378,618.73,358.858,622.378,331.819,628.202C331.819,628.202,603.527,737.032,603.527,737.032C603.527,737.032,548.647,791.912,548.647,791.912C542.408,798.152,542.408,808.295,548.647,814.535C548.647,814.535,593.895,859.815,593.895,859.815C600.135,866.054,610.278,866.054,616.518,859.815C616.518,859.815,863.715,612.554,863.715,612.554C870.05,606.315,870.05,596.171,863.747,589.931C863.747,589.931,863.747,589.931,863.747,589.931M528.008,352.494C572.103,352.494,608.007,388.366,608.007,432.493C608.007,476.621,572.135,512.492,528.008,512.492C483.88,512.492,448.009,476.621,448.009,432.493C448.009,388.366,483.912,352.494,528.008,352.494C528.008,352.494,528.008,352.494,528.008,352.494M528.008,480.492C554.503,480.492,576.007,458.989,576.007,432.493C576.007,405.998,554.503,384.494,528.008,384.494C501.48,384.494,480.009,405.998,480.009,432.493C480.009,458.989,501.48,480.492,528.008,480.492C528.008,480.492,528.008,480.492,528.008,480.492M944.001,1024.484C899.874,1024.484,864.003,988.613,864.003,944.485C864.003,900.358,899.874,864.486,944.001,864.486C988.129,864.486,1024,900.358,1024,944.485C1024,988.613,988.129,1024.484,944.001,1024.484C944.001,1024.484,944.001,1024.484,944.001,1024.484M944.001,896.486C917.506,896.486,896.002,917.99,896.002,944.485C896.002,970.981,917.506,992.484,944.001,992.484C970.497,992.484,992.001,970.981,992.001,944.485C992.001,917.99,970.497,896.486,944.001,896.486C944.001,896.486,944.001,896.486,944.001,896.486M256.012,480.492C256.012,445.197,284.716,416.493,320.011,416.493C355.306,416.493,384.01,445.197,384.01,480.492C384.01,515.788,355.306,544.491,320.011,544.491C284.716,544.491,256.012,515.788,256.012,480.492C256.012,480.492,256.012,480.492,256.012,480.492M320.011,512.492C337.675,512.492,352.011,498.188,352.011,480.492C352.011,462.797,337.675,448.493,320.011,448.493C302.347,448.493,288.012,462.797,288.012,480.492C288.012,498.188,302.347,512.492,320.011,512.492C320.011,512.492,320.011,512.492,320.011,512.492M384.01,288.495C384.01,263.856,410.666,248.464,432.009,260.784C441.897,266.512,448.009,277.072,448.009,288.495C448.009,313.135,421.353,328.527,400.01,316.207C390.122,310.479,384.01,299.919,384.01,288.495M896.002,768.488C896.002,743.848,922.658,728.457,944.001,740.776C953.889,746.504,960.001,757.064,960.001,768.488C960.001,793.128,933.345,808.519,912.002,796.2C902.114,790.472,896.002,779.912,896.002,768.488" class="z-lab"/><glyph unicode="&#x0042;" d="M555.623,910.222C555.623,910.222,89.134,910.222,89.134,910.222C70.28,910.222,55,894.942,55,876.088C55,876.088,55,34.134,55,34.134C55,15.282,70.28,0,89.134,0C89.134,0,555.621,0,555.621,0C574.473,0,589.755,15.28,589.755,34.134C589.755,34.134,589.755,876.088,589.755,876.088C589.755,894.942,574.475,910.222,555.623,910.222C555.623,910.222,555.623,910.222,555.623,910.222M521.489,68.268C521.489,68.268,123.268,68.268,123.268,68.268C123.268,68.268,123.268,841.956,123.268,841.956C123.268,841.956,521.489,841.956,521.489,841.956C521.489,841.956,521.489,68.268,521.489,68.268C521.489,68.268,521.489,68.268,521.489,68.268M355.373,455.113C355.373,455.113,355.373,341.335,355.373,341.335C355.373,341.335,423.639,341.335,423.639,341.335C423.639,341.335,423.639,455.113,423.639,455.113C423.639,455.113,355.373,455.113,355.373,455.113M218.842,455.113C218.842,455.113,218.842,341.335,218.842,341.335C218.842,341.335,287.108,341.335,287.108,341.335C287.108,341.335,287.108,455.113,287.108,455.113C287.108,455.113,218.842,455.113,218.842,455.113M389.507,284.445C389.507,284.445,252.974,284.445,252.974,284.445C234.122,284.445,218.84,269.165,218.84,250.312C218.84,250.312,218.84,34.134,218.84,34.134C218.84,34.134,287.106,34.134,287.106,34.134C287.106,34.134,287.106,216.178,287.106,216.178C287.106,216.178,355.371,216.178,355.371,216.178C355.371,216.178,355.371,34.134,355.371,34.134C355.371,34.134,423.637,34.134,423.637,34.134C423.637,34.134,423.637,250.314,423.637,250.314C423.641,269.165,408.361,284.445,389.507,284.445C389.507,284.445,389.507,284.445,389.507,284.445M355.373,625.779C355.373,625.779,355.373,512.001,355.373,512.001C355.373,512.001,423.639,512.001,423.639,512.001C423.639,512.001,423.639,625.779,423.639,625.779C423.639,625.779,355.373,625.779,355.373,625.779M218.842,625.779C218.842,625.779,218.842,512.001,218.842,512.001C218.842,512.001,287.108,512.001,287.108,512.001C287.108,512.001,287.108,625.779,287.108,625.779C287.108,625.779,218.842,625.779,218.842,625.779M355.373,796.444C355.373,796.444,355.373,682.667,355.373,682.667C355.373,682.667,423.639,682.667,423.639,682.667C423.639,682.667,423.639,796.444,423.639,796.444C423.639,796.444,355.373,796.444,355.373,796.444M218.842,796.444C218.842,796.444,218.842,682.667,218.842,682.667C218.842,682.667,287.108,682.667,287.108,682.667C287.108,682.667,287.108,796.444,287.108,796.444C287.108,796.444,218.842,796.444,218.842,796.444M441.845,1024C441.845,1024,202.912,1024,202.912,1024C184.06,1024,168.778,1008.72,168.778,989.866C168.778,989.866,168.778,876.088,168.778,876.088C168.778,876.088,237.044,876.088,237.044,876.088C237.044,876.088,237.044,955.734,237.044,955.734C237.044,955.734,407.709,955.734,407.709,955.734C407.709,955.734,407.709,876.09,407.709,876.09C407.709,876.09,475.975,876.09,475.975,876.09C475.975,876.09,475.975,989.866,475.975,989.866C475.979,1008.72,460.697,1024,441.845,1024C441.845,1024,441.845,1024,441.845,1024M935.64,671.289C935.64,671.289,560.173,671.289,560.173,671.289C560.173,671.289,560.173,603.023,560.173,603.023C560.173,603.023,901.506,603.023,901.506,603.023C901.506,603.023,901.506,68.268,901.506,68.268C901.506,68.268,560.173,68.268,560.173,68.268C560.173,68.268,560.173,0.002,560.173,0.002C560.173,0.002,935.638,0.002,935.638,0.002C954.492,0.002,969.772,15.282,969.772,34.136C969.772,34.136,969.772,637.157,969.772,637.157C969.772,656.009,954.492,671.289,935.64,671.289C935.64,671.289,935.64,671.289,935.64,671.289M783.179,216.18C783.179,216.18,783.179,102.402,783.179,102.402C783.179,102.402,851.444,102.402,851.444,102.402C851.444,102.402,851.444,216.18,851.444,216.18C851.444,216.18,783.179,216.18,783.179,216.18M646.645,216.18C646.645,216.18,646.645,102.402,646.645,102.402C646.645,102.402,714.911,102.402,714.911,102.402C714.911,102.402,714.911,216.18,714.911,216.18C714.911,216.18,646.645,216.18,646.645,216.18M783.179,386.845C783.179,386.845,783.179,273.067,783.179,273.067C783.179,273.067,851.444,273.067,851.444,273.067C851.444,273.067,851.444,386.845,851.444,386.845C851.444,386.845,783.179,386.845,783.179,386.845M646.645,386.845C646.645,386.845,646.645,273.067,646.645,273.067C646.645,273.067,714.911,273.067,714.911,273.067C714.911,273.067,714.911,386.845,714.911,386.845C714.911,386.845,646.645,386.845,646.645,386.845M783.179,557.513C783.179,557.513,783.179,443.735,783.179,443.735C783.179,443.735,851.444,443.735,851.444,443.735C851.444,443.735,851.444,557.513,851.444,557.513C851.444,557.513,783.179,557.513,783.179,557.513M646.645,557.513C646.645,557.513,646.645,443.735,646.645,443.735C646.645,443.735,714.911,443.735,714.911,443.735C714.911,443.735,714.911,557.513,714.911,557.513C714.911,557.513,646.645,557.513,646.645,557.513" class="z-city"/><glyph unicode="&#x0043;" d="M758.206,435.596C756.211,436.553,681.559,473.314,668.294,478.088C662.878,480.033,657.076,481.932,650.905,481.932C640.825,481.932,632.357,476.908,625.761,467.04C618.304,455.956,595.729,429.568,588.754,421.685C587.843,420.645,586.6,419.401,585.855,419.401C585.187,419.401,573.633,424.159,570.136,425.678C490.054,460.464,429.269,544.116,420.934,558.223C419.744,560.251,419.694,561.172,419.684,561.172C419.977,562.246,422.67,564.945,424.06,566.338C428.126,570.361,432.531,575.664,436.793,580.794C438.811,583.225,440.833,585.658,442.817,587.952C449.001,595.147,451.754,600.732,454.946,607.202C454.946,607.202,456.618,610.563,456.618,610.563C464.411,626.046,457.755,639.112,455.604,643.331C453.839,646.862,422.317,722.937,418.966,730.93C410.907,750.216,400.258,759.196,385.46,759.196C384.087,759.196,385.46,759.196,379.702,758.954C372.69,758.658,334.506,753.631,317.623,742.988C299.72,731.701,269.432,695.722,269.432,632.446C269.432,575.498,305.571,521.728,321.088,501.278C321.473,500.763,322.182,499.715,323.209,498.213C382.631,411.432,456.708,347.119,531.802,317.121C604.097,288.243,638.332,284.905,657.794,284.905C657.798,284.905,657.798,284.905,657.798,284.905C665.976,284.905,672.523,285.546,678.297,286.115C678.297,286.115,681.961,286.464,681.961,286.464C706.936,288.678,761.82,317.118,774.304,351.81C784.139,379.136,786.732,408.992,780.189,419.827C775.707,427.194,767.984,430.901,758.206,435.596C758.206,435.596,758.206,435.596,758.206,435.596M521.589,1024C244.258,1024,18.632,800.07,18.632,524.823C18.632,435.798,42.457,348.655,87.589,272.387C87.589,272.387,1.204,17.568,1.204,17.568C-0.405,12.817,0.792,7.564,4.306,3.986C6.843,1.396,10.284,0,13.798,0C15.144,0,16.501,0.203,17.824,0.625C17.824,0.625,283.532,85.058,283.532,85.058C356.243,46.21,438.422,25.703,521.592,25.703C798.897,25.7,1024.499,249.607,1024.499,524.823C1024.499,800.07,798.897,1024,521.589,1024C521.589,1024,521.589,1024,521.589,1024M521.589,129.682C443.329,129.682,367.53,152.28,302.373,195.035C300.182,196.475,297.639,197.213,295.079,197.213C293.726,197.213,292.369,197.007,291.049,196.588C291.049,196.588,157.946,154.278,157.946,154.278C157.946,154.278,200.914,281.045,200.914,281.045C202.304,285.147,201.609,289.672,199.049,293.17C149.431,360.967,123.203,441.068,123.203,524.823C123.203,742.732,301.918,920.017,521.586,920.017C741.227,920.017,919.922,742.732,919.922,524.823C919.925,306.941,741.234,129.682,521.589,129.682C521.589,129.682,521.589,129.682,521.589,129.682" class="z-whatsapp"/><glyph unicode="&#x0044;" d="M300.802,671.983C300.802,671.983,723.268,671.983,723.268,671.983C748.82,671.983,746.725,714.077,744.078,735.149C743.265,741.65,739.194,751.225,735.432,756.592C735.432,756.592,542.616,1001.799,542.616,1001.799C525.727,1031.4,498.344,1031.4,481.447,1001.799C481.447,1001.799,288.655,756.623,288.655,756.623C284.891,751.256,280.824,741.682,280.01,735.182C277.355,714.102,275.251,671.983,300.802,671.983C300.802,671.983,300.802,671.983,300.802,671.983M288.655,267.383C288.655,267.383,481.447,22.201,481.447,22.201C498.338,-7.4,525.718,-7.4,542.616,22.201C542.616,22.201,735.432,267.417,735.432,267.417C739.199,272.784,743.256,282.35,744.078,288.86C746.725,309.93,748.82,352.024,723.268,352.024C723.268,352.024,300.802,352.024,300.802,352.024C275.251,352.024,277.355,309.905,280.01,288.827C280.831,282.327,284.891,272.753,288.655,267.383C288.655,267.383,288.655,267.383,288.655,267.383" class="z-sort-off"/><glyph unicode="&#x0045;" d="M292.245,657.071C292.245,657.071,732.609,657.071,732.609,657.071C759.24,657.071,757.057,700.947,754.299,722.912C753.451,729.689,749.21,739.67,745.288,745.263C745.288,745.263,544.305,1000.858,544.305,1000.858C526.699,1031.714,498.158,1031.714,480.544,1000.858C480.544,1000.858,279.586,745.297,279.586,745.297C275.661,739.703,271.423,729.723,270.575,722.946C267.806,700.972,265.614,657.071,292.245,657.071C292.245,657.071,292.245,657.071,292.245,657.071M512.433,0C512.433,0,512.433,0,512.433,0C512.433,0,512.433,0,512.433,0C512.433,0,512.433,0,512.433,0C512.433,0,512.433,0,512.433,0C512.433,0,512.433,0,512.433,0C512.433,0,512.433,0,512.433,0C512.433,0,512.433,0,512.433,0C512.433,0,512.433,0,512.433,0C512.433,0,512.433,0,512.433,0" class="z-sort-asc"/><glyph unicode="&#x0046;" d="M512.432,1024C512.432,1024,512.432,1024,512.432,1024C512.432,1024,512.432,1024,512.432,1024C512.432,1024,512.432,1024,512.432,1024C512.432,1024,512.432,1024,512.432,1024C512.432,1024,512.432,1024,512.432,1024C512.432,1024,512.432,1024,512.432,1024C512.432,1024,512.432,1024,512.432,1024C512.432,1024,512.432,1024,512.432,1024C512.432,1024,512.432,1024,512.432,1024M279.586,278.711C279.586,278.711,480.543,23.142,480.543,23.142C498.149,-7.714,526.69,-7.714,544.304,23.142C544.304,23.142,745.286,278.745,745.286,278.745C749.211,284.338,753.441,294.31,754.298,301.096C757.058,323.057,759.242,366.936,732.608,366.936C732.608,366.936,292.245,366.936,292.245,366.936C265.614,366.936,267.806,323.032,270.575,301.062C271.431,294.285,275.661,284.304,279.586,278.711C279.586,278.711,279.586,278.711,279.586,278.711" class="z-sort-desc"/><glyph unicode="&#x0047;" d="M512,1024C229.217,1024,0,794.713,0,512C0,229.217,229.217,0,512,0C794.783,0,1024,229.217,1024,512C1024,794.783,794.783,1024,512,1024C512,1024,512,1024,512,1024M512,111.304C290.678,111.304,111.304,290.713,111.304,512C111.304,733.287,290.678,912.696,512,912.696C733.322,912.696,912.696,733.287,912.696,512C912.696,290.713,733.322,111.304,512,111.304C512,111.304,512,111.304,512,111.304M550.957,801.391C550.957,801.391,473.043,801.391,473.043,801.391C473.043,801.391,473.043,495.861,473.043,495.861C473.043,495.861,662.539,306.365,662.539,306.365C662.539,306.365,717.635,361.461,717.635,361.461C717.635,361.461,550.957,528.139,550.957,528.139C550.957,528.139,550.957,801.391,550.957,801.391" class="z-clock"/><glyph unicode="&#x0048;" d="M433.866,433.798C535.181,332.442,652.535,235.527,698.933,282.005C765.37,348.362,806.248,406.239,952.681,288.605C1099.114,170.97,986.679,92.534,922.282,28.137C848.046,-46.019,571.339,24.217,297.752,297.764C24.285,571.271,-46.111,848.058,28.205,922.294C92.522,986.691,170.918,1099.046,288.593,952.693C406.267,806.34,348.43,765.382,281.993,698.945C235.715,652.467,332.551,535.193,433.866,433.798C433.866,433.798,433.866,433.798,433.866,433.798" class="z-phone"/><glyph unicode="&#x0049;" d="M949.129,75.305C848.617,-25.102,685.766,-25.102,585.257,75.305C585.257,75.305,476.112,184.556,476.112,184.556C442.856,217.742,421.77,257.933,410.484,300.246C444.342,304.35,477.704,313.23,509.51,326.993C516.268,301.484,528.969,277.214,548.923,257.331C548.923,257.331,658.068,148.08,658.068,148.08C718.386,87.864,816.103,87.864,876.425,148.08C936.676,208.402,936.676,306.155,876.425,366.476C876.425,366.476,767.209,475.621,767.209,475.621C719.765,523.065,649.329,532.582,591.98,505.304C591.98,505.304,694.434,402.846,694.434,402.846C714.565,382.715,714.565,350.202,694.434,330.071C674.307,309.94,641.794,309.94,621.663,330.071C621.663,330.071,508.874,442.825,508.874,442.825C408.998,376.701,273.071,387.562,185.047,475.551C185.047,475.551,75.831,584.766,75.831,584.766C-24.61,685.279,-24.61,848.2,75.831,948.642C176.273,1049.084,339.195,1049.155,439.707,948.642C439.707,948.642,548.852,839.426,548.852,839.426C582.109,806.241,603.23,765.979,614.481,723.63C580.623,719.526,547.26,710.646,515.454,696.989C508.697,722.462,495.996,746.662,476.042,766.651C476.042,766.651,366.932,875.867,366.932,875.867C306.61,936.118,208.893,936.118,148.571,875.867C88.32,815.545,88.32,717.828,148.571,657.506C148.571,657.506,257.716,548.29,257.716,548.29C305.231,500.847,375.671,491.33,432.985,518.607C432.985,518.607,330.527,621.101,330.527,621.101C310.396,641.232,310.396,673.781,330.527,693.911C350.658,714.042,383.171,714.042,403.302,693.911C403.302,693.911,516.091,581.051,516.091,581.051C615.967,647.246,751.89,636.385,839.913,548.326C839.913,548.326,949.059,439.181,949.059,439.181C1049.571,338.668,1049.571,175.747,949.059,75.234C949.059,75.234,949.129,75.305,949.129,75.305" class="z-link"/><glyph unicode="&#x004a;" d="M787.642,157.627C787.642,168.275,783.748,177.51,775.96,185.333C768.172,193.155,758.937,197.049,748.255,197.015C737.572,196.98,728.337,193.086,720.549,185.333C712.761,177.579,708.867,168.344,708.867,157.627C708.867,146.91,712.761,137.675,720.549,129.922C728.337,122.168,737.572,118.275,748.255,118.24C758.937,118.206,768.172,122.1,775.96,129.922C783.748,137.744,787.642,146.979,787.642,157.627C787.642,157.627,787.642,157.627,787.642,157.627M945.191,157.627C945.191,168.275,941.297,177.51,933.509,185.333C925.721,193.155,916.486,197.049,905.804,197.015C895.121,196.98,885.886,193.086,878.098,185.333C870.31,177.579,866.416,168.344,866.416,157.627C866.416,146.91,870.31,137.675,878.098,129.922C885.886,122.168,895.121,118.275,905.804,118.24C916.486,118.206,925.721,122.1,933.509,129.922C941.297,137.744,945.191,146.979,945.191,157.627C945.191,157.627,945.191,157.627,945.191,157.627M1023.931,295.466C1023.931,295.466,1023.931,98.564,1023.931,98.564C1023.931,82.161,1018.176,68.205,1006.701,56.73C995.226,45.255,981.27,39.5,964.867,39.5C964.867,39.5,59.064,39.5,59.064,39.5C42.661,39.5,28.705,45.255,17.23,56.73C5.755,68.205,0,82.161,0,98.564C0,98.564,0,295.466,0,295.466C0,311.868,5.755,325.824,17.23,337.299C28.705,348.774,42.661,354.529,59.064,354.529C59.064,354.529,345.216,354.529,345.216,354.529C345.216,354.529,428.298,270.827,428.298,270.827C452.109,247.842,479.987,236.367,512,236.367C544.013,236.367,571.891,247.842,595.702,270.827C595.702,270.827,679.404,354.529,679.404,354.529C679.404,354.529,964.936,354.529,964.936,354.529C981.339,354.529,995.295,348.774,1006.77,337.299C1018.245,325.824,1024,311.868,1024,295.466C1024,295.466,1023.931,295.466,1023.931,295.466M823.962,645.609C830.958,628.793,828.063,614.423,815.347,602.535C815.347,602.535,539.671,326.858,539.671,326.858C532.297,319.07,523.062,315.176,511.966,315.176C500.87,315.176,491.634,319.07,484.26,326.858C484.26,326.858,208.584,602.535,208.584,602.535C195.868,614.423,192.973,628.793,199.969,645.609C206.964,661.598,219.059,669.593,236.289,669.593C236.289,669.593,393.804,669.593,393.804,669.593C393.804,669.593,393.804,945.269,393.804,945.269C393.804,955.917,397.698,965.152,405.486,972.975C413.273,980.797,422.509,984.691,433.191,984.657C433.191,984.657,590.706,984.657,590.706,984.657C601.354,984.657,610.589,980.763,618.411,972.975C626.233,965.187,630.127,955.952,630.093,945.269C630.093,945.269,630.093,669.593,630.093,669.593C630.093,669.593,787.607,669.593,787.607,669.593C804.837,669.593,816.933,661.598,823.928,645.609C823.928,645.609,823.962,645.609,823.962,645.609" class="z-download"/><glyph unicode="&#x004b;" d="M522.425,585.189C522.425,585.189,522.425,409.578,522.425,409.578C522.425,409.578,812.798,409.578,812.798,409.578C801.006,334.197,724.984,188.783,522.425,188.783C347.644,188.783,205.046,333.554,205.046,511.981C205.046,690.389,347.644,835.161,522.425,835.161C621.824,835.161,688.436,792.737,726.457,756.189C726.457,756.189,865.465,890,865.465,890C776.27,973.563,660.676,1024,522.5,1024C239.496,1024,10.5,795.004,10.5,512C10.5,228.996,239.496,0,522.5,0C817.919,0,1014.091,207.794,1014.091,500.226C1014.091,533.825,1010.501,559.413,1006.079,585.018C1006.079,585.018,522.5,585.226,522.5,585.226C522.5,585.226,522.425,585.188,522.425,585.188C522.425,585.188,522.425,585.189,522.425,585.189" class="z-google"/><glyph unicode="&#x004c;" d="M504.907,414.869C504.907,414.869,623.924,620.649,623.924,620.649C623.924,620.649,704.853,415.953,704.853,415.953C704.853,415.953,665.18,367.112,665.18,367.112C656.846,361.278,640.677,335.024,626.008,300.436C626.008,300.436,160.19,300.436,160.19,300.436C160.19,300.436,160.19,340.525,160.19,340.525C160.19,340.525,210.197,342.942,210.197,342.942C210.197,342.942,259.371,464.126,259.371,464.126C259.371,464.126,284.375,377.364,284.375,377.364C284.375,377.364,358.386,377.364,358.386,377.364C358.386,377.364,422.895,543.471,422.895,543.471C422.895,543.471,504.74,414.536,504.74,414.536C504.74,414.536,504.907,414.869,504.907,414.869M90.18,855.85C90.18,855.85,787.782,855.85,787.782,855.85C837.514,855.667,877.778,815.403,877.961,765.671C877.961,765.671,877.961,626.817,877.961,626.817C877.961,626.817,831.621,572.476,831.621,572.476C831.621,572.476,821.537,560.057,821.537,560.057C821.537,560.057,821.537,757.669,821.537,757.669C821.178,775.93,806.459,790.649,788.198,791.008C788.198,791.008,98.181,791.008,98.181,791.008C79.92,790.649,65.201,775.93,64.843,757.669C64.843,757.669,64.843,269.181,64.843,269.181C65.201,250.92,79.92,236.202,98.181,235.843C98.181,235.843,601.171,235.843,601.171,235.843C596.812,216.007,594.028,195.862,592.837,175.584C592.837,175.584,592.253,171.334,592.253,171.334C592.253,171.334,90.18,171.334,90.18,171.334C40.581,171.517,0.367,211.581,0,261.18C0,261.18,0,765.671,0,765.671C0.183,815.403,40.448,855.667,90.18,855.85C90.18,855.85,90.18,855.85,90.18,855.85M812.869,198.588C812.869,198.588,685.85,168.5,685.85,168.5C685.85,168.5,700.102,305.187,700.102,305.187C700.102,305.187,812.869,198.588,812.869,198.588C812.869,198.588,812.869,198.588,812.869,198.588M739.108,347.443C739.108,347.443,905.799,532.136,905.799,532.136C907.899,534.595,910.908,536.095,914.133,536.304C916.225,536.379,918.301,535.895,920.134,534.887C920.134,534.887,1020.732,443.207,1020.732,443.207C1022.724,441.306,1023.891,438.706,1023.983,435.956C1024.166,432.789,1022.874,429.705,1020.482,427.621C1020.482,427.621,851.791,241.011,851.791,241.011C851.791,241.011,738.941,347.443,738.941,347.443C738.941,347.443,739.108,347.443,739.108,347.443M254.454,670.24C300.26,670.24,328.898,620.649,305.986,580.977C283.083,541.304,225.825,541.304,202.921,580.977C197.696,590.02,194.945,600.288,194.945,610.731C194.945,643.594,221.591,670.24,254.454,670.24C254.454,670.24,254.454,670.24,254.454,670.24" class="z-edit-image"/><glyph unicode="&#x004d;" d="M768.192,319.991C768.192,319.991,768.192,277.318,768.192,277.318C768.192,271.083,766.176,265.968,762.181,261.973C758.186,257.979,753.071,255.963,746.836,255.963C746.836,255.963,277.509,255.963,277.509,255.963C271.275,255.963,266.16,257.979,262.165,261.973C258.17,265.968,256.154,271.083,256.154,277.318C256.154,277.318,256.154,319.991,256.154,319.991C256.154,326.225,258.17,331.34,262.165,335.335C266.16,339.33,271.275,341.346,277.509,341.346C277.509,341.346,746.836,341.346,746.836,341.346C753.071,341.346,758.186,339.33,762.181,335.335C766.176,331.34,768.192,326.225,768.192,319.991C768.192,319.991,768.192,319.991,768.192,319.991M768.192,490.682C768.192,490.682,768.192,448.009,768.192,448.009C768.192,441.775,766.176,436.66,762.181,432.665C758.186,428.67,753.071,426.654,746.836,426.654C746.836,426.654,277.509,426.654,277.509,426.654C271.275,426.654,266.16,428.67,262.165,432.665C258.17,436.66,256.154,441.775,256.154,448.009C256.154,448.009,256.154,490.682,256.154,490.682C256.154,496.917,258.17,502.032,262.165,506.027C266.16,510.021,271.275,512.037,277.509,512.037C277.509,512.037,746.836,512.037,746.836,512.037C753.071,512.037,758.186,510.021,762.181,506.027C766.176,502.032,768.192,496.917,768.192,490.682C768.192,490.682,768.192,490.682,768.192,490.682M170.846,85.308C170.846,85.308,853.537,85.308,853.537,85.308C853.537,85.308,853.537,597.308,853.537,597.308C853.537,597.308,576.182,597.308,576.182,597.308C558.411,597.308,543.291,603.543,530.859,615.975C518.426,628.408,512.192,643.528,512.192,661.299C512.192,661.299,512.192,938.654,512.192,938.654C512.192,938.654,170.846,938.654,170.846,938.654C170.846,938.654,170.846,85.308,170.846,85.308C170.846,85.308,170.846,85.308,170.846,85.308M597.5,682.654C597.5,682.654,848.161,682.654,848.161,682.654C843.718,695.534,838.828,704.644,833.489,709.983C833.489,709.983,624.829,918.643,624.829,918.643C619.49,923.982,610.38,928.873,597.5,933.315C597.5,933.315,597.5,682.654,597.5,682.654C597.5,682.654,597.5,682.654,597.5,682.654M938.846,661.336C938.846,661.336,938.846,63.991,938.846,63.991C938.846,46.22,932.611,31.099,920.179,18.667C907.746,6.235,892.626,0,874.855,0C874.855,0,149.491,0,149.491,0C131.72,0,116.599,6.235,104.167,18.667C91.735,31.099,85.5,46.22,85.5,63.991C85.5,63.991,85.5,960.009,85.5,960.009C85.5,977.78,91.735,992.901,104.167,1005.333C116.599,1017.765,131.72,1024,149.491,1024C149.491,1024,576.182,1024,576.182,1024C593.953,1024,613.516,1019.557,634.834,1010.672C656.152,1001.786,673.064,991.109,685.496,978.676C685.496,978.676,893.485,770.688,893.485,770.688C905.917,758.256,916.595,741.343,925.48,720.026C934.366,698.708,938.808,679.145,938.808,661.374C938.808,661.374,938.846,661.336,938.846,661.336" class="z-file"/><glyph unicode="&#x004e;" d="M926.656,609.344C926.656,609.344,608.32,927.68,608.32,927.68C608.32,927.68,704,1024,704,1024C704,1024,1024,704,1024,704C1024,704,926.656,609.344,926.656,609.344C926.656,609.344,926.656,609.344,926.656,609.344M831.936,517.12C829.76,515.008,828.032,513.856,825.984,512C825.984,512,768,512,768,512C768,512,704,512,704,512C704,512,640,256,640,256C640,256,128,0,128,0C128,0,64,0,64,0C64,0,267.52,203.52,267.52,203.52C283.584,196.224,301.248,192,320,192C390.656,192,448,249.344,448,320C448,390.656,390.656,448,320,448C249.344,448,192,390.656,192,320C192,301.248,196.224,283.584,203.52,267.52C203.52,267.52,0,64,0,64C0,64,0,128,0,128C0,128,256,640,256,640C256,640,512,704,512,704C512,704,512,768,512,768C512,768,512,830.208,512,830.208C513.216,831.488,513.792,832.576,515.136,833.92C515.136,833.92,544.512,863.488,544.512,863.488C544.512,863.488,861.824,546.176,861.824,546.176C861.824,546.176,831.936,517.12,831.936,517.12C831.936,517.12,831.936,517.12,831.936,517.12" class="z-pen"/><glyph unicode="&#x004f;" d="M158.943,672.397C206.95,709.672,246.764,684.03,299.881,622.526C305.89,615.649,313.924,623.715,318.454,627.667C322.985,631.684,393.101,694.698,396.507,697.654C399.946,700.675,404.059,706.33,398.628,712.661C393.197,718.991,373.242,744.794,360.421,761.505C267.458,883.099,614.727,965.554,561.353,966.839C534.264,967.546,425.299,968.8,409.071,967.097C343.101,960.091,260.292,898.459,218.583,869.764C164.084,832.296,143.679,810.541,140.337,807.488C124.913,793.96,137.863,762.919,109.907,738.4C80.344,712.5,61.931,732.07,44.804,717.063C36.256,709.544,12.574,691.806,5.729,685.797C-1.051,679.82,-2.304,669.698,4.637,661.568C4.637,661.568,69.579,589.781,75.074,583.483C80.536,577.153,95.189,571.819,104.283,579.82C113.377,587.789,136.738,608.29,140.691,611.793C144.707,615.231,138.12,656.17,159.007,672.365C159.007,672.365,158.943,672.397,158.943,672.397M452.484,645.855C446.314,652.988,438.699,653.149,432.079,647.301C432.079,647.301,358.3,582.969,358.3,582.969C352.548,577.828,351.777,568.38,356.951,562.403C356.951,562.403,783.365,77.152,783.365,77.152C793.294,65.648,810.55,64.459,822.022,74.421C822.022,74.421,871.958,116.163,871.958,116.163C883.333,126.124,884.49,143.605,874.593,155.076C874.593,155.076,452.484,645.823,452.484,645.823C452.484,645.823,452.484,645.855,452.484,645.855M1021.058,852.411C1017.266,877.797,1004.092,872.463,997.247,861.666C990.499,850.933,960.165,805.046,947.729,784.352C935.39,763.69,905.055,723.104,848.307,763.176C789.278,804.918,809.843,834.063,820.094,853.665C830.441,873.362,862.157,928.472,866.784,935.413C871.315,942.354,865.949,962.501,847.697,954.082C829.348,945.599,717.973,901.319,702.517,837.887C686.739,773.266,715.788,715.585,658.815,658.258C658.815,658.258,589.824,586.279,589.824,586.279C589.824,586.279,659.136,505.655,659.136,505.655C659.136,505.655,744.162,586.44,744.162,586.44C764.47,606.812,807.722,626.607,846.893,617.706C930.859,598.682,976.617,630.238,1004.284,682.327C1029.059,728.953,1024.946,827.058,1021.09,852.443C1021.09,852.443,1021.058,852.411,1021.058,852.411M138.698,149.967C127.998,139.17,127.998,121.69,138.698,110.957C138.698,110.957,187.606,63.142,187.606,63.142C198.306,52.409,215.273,56.908,225.974,67.673C225.974,67.673,478.255,315.745,478.255,315.745C478.255,315.745,400.942,403.824,400.942,403.824C400.942,403.824,138.731,149.999,138.731,149.999C138.731,149.999,138.698,149.967,138.698,149.967" class="z-tools"/><glyph unicode="&#x0050;" d="M505.648,1023.953C222.941,1020.162,-3.21,787.923,0.546,505.182C4.337,222.371,236.61,-3.676,519.317,0.045C802.094,3.837,1028.245,236.11,1024.419,518.816C1020.628,801.628,788.355,1027.744,505.648,1023.953C505.648,1023.953,505.648,1023.953,505.648,1023.953M506.587,957.241C582.829,958.285,654.827,939.99,718.061,907.086C718.061,907.086,649.158,792.236,649.158,792.236C607.872,812.34,561.508,823.679,512.465,823.679C463.492,823.679,417.128,812.34,375.842,792.167C375.842,792.167,307.009,906.982,307.009,906.982C366.764,938.146,434.554,956.233,506.587,957.241C506.587,957.241,506.587,957.241,506.587,957.241M232.367,375.411C232.367,375.411,117.622,306.612,117.622,306.612C86.457,366.333,68.371,434.123,67.432,506.051C66.388,582.363,84.683,654.361,117.587,717.525C117.587,717.525,232.402,648.587,232.402,648.587C212.263,607.336,200.89,561.042,200.89,512.034C200.89,463.061,212.228,416.697,232.402,375.411C232.402,375.411,232.367,375.411,232.367,375.411M518.448,66.896C442.206,65.853,370.138,84.148,306.974,117.051C306.974,117.051,375.877,231.901,375.877,231.901C417.163,211.762,463.527,200.389,512.5,200.389C561.542,200.389,607.872,211.693,649.123,231.831C649.123,231.831,717.956,117.086,717.956,117.086C658.201,85.991,590.446,67.905,518.448,66.896C518.448,66.896,518.448,66.896,518.448,66.896M512.5,267.239C377.268,267.239,267.705,376.872,267.705,512.034C267.705,647.266,377.338,756.898,512.5,756.898C647.801,756.898,757.364,647.266,757.364,512.034C757.364,376.802,647.801,267.239,512.5,267.239C512.5,267.239,512.5,267.239,512.5,267.239M792.633,375.411C812.772,416.697,824.145,463.061,824.145,512.034C824.145,561.076,812.806,607.371,792.633,648.657C792.633,648.657,907.378,717.56,907.378,717.56C938.543,657.805,956.699,590.05,957.638,518.051C958.647,441.74,940.317,369.741,907.448,306.578C907.448,306.578,792.633,375.411,792.633,375.411C792.633,375.411,792.633,375.411,792.633,375.411" class="z-help"/><glyph unicode="&#x0051;" d="M1024,61.5C1024,61.5,1022.016,255.382,1010.112,275.445C992.449,305.396,951.426,325.94,875.269,357.779C799.335,389.522,775.016,416.337,775.016,473.647C775.016,508.11,798.215,496.846,808.391,559.852C812.583,586.028,833.062,560.3,836.998,619.947C836.998,643.754,825.83,649.706,825.83,649.706C825.83,649.706,831.462,684.937,833.702,712.008C836.454,745.799,816.646,832.996,711.242,832.996C605.837,832.996,586.126,745.767,588.814,712.008C591.022,684.937,596.653,649.706,596.653,649.706C596.653,649.706,585.486,643.754,585.486,619.947C589.422,560.236,609.901,585.964,614.157,559.852C624.3,496.814,647.5,508.078,647.5,473.647C647.5,434.672,636.236,409.809,605.165,387.954C771.048,304.916,793.319,287.957,793.319,213.719C793.319,213.719,793.319,61.5,793.319,61.5C793.319,61.5,1023.968,61.5,1023.968,61.5C1023.968,61.5,1024,61.5,1024,61.5M523.472,329.012C422.163,371.314,389.844,407.025,389.844,483.471C389.844,529.357,420.755,514.382,434.322,598.475C439.89,633.354,467.281,599.051,472.465,678.601C472.465,710.344,457.554,718.215,457.554,718.215C457.554,718.215,465.137,765.158,468.113,801.317C471.793,846.275,445.394,962.592,304.854,962.592C164.315,962.592,137.948,846.307,141.628,801.317C144.603,765.158,152.123,718.215,152.123,718.215C152.123,718.215,137.276,710.344,137.276,678.601C142.556,598.987,169.851,633.29,175.483,598.475C189.05,514.414,219.961,529.421,219.961,483.471C219.961,407.025,187.546,371.282,86.333,329.012C55.454,316.116,0,296.085,0,248.054C0,248.054,0,61.5,0,61.5C0,61.5,711.338,61.5,711.338,61.5C711.338,61.5,711.338,171.833,711.338,201.336C711.338,245.206,624.972,286.517,523.44,329.012C523.44,329.012,523.472,329.012,523.472,329.012" class="z-users"/><glyph unicode="&#x0052;" d="M876.004,773.693C876.004,825.939,824.019,825.939,824.019,825.939C824.019,825.939,199.878,825.939,199.878,825.939C199.878,825.939,147.894,825.939,147.894,773.693C147.894,773.693,147.894,721.448,147.894,721.448C147.894,721.448,876.004,721.448,876.004,721.448C876.004,721.448,876.004,773.693,876.004,773.693C876.004,773.693,876.004,773.693,876.004,773.693M719.952,930.431C719.952,930.431,303.913,930.431,303.913,930.431C303.913,930.431,251.928,930.431,251.928,878.185C251.928,878.185,771.97,878.185,771.97,878.185C771.97,930.431,719.92,930.431,719.92,930.431C719.92,930.431,719.952,930.431,719.952,930.431M979.973,721.448C949.213,752.371,949.213,752.371,949.213,752.371C949.213,752.371,949.213,669.202,949.213,669.202C949.213,669.202,74.684,669.202,74.684,669.202C74.684,669.202,74.684,752.371,74.684,752.371C74.684,752.371,74.684,752.371,43.925,721.448C13.165,690.525,-8.909,682.198,3.532,616.891C15.81,551.845,75.533,195.006,84.35,146.744C94.113,93.782,147.927,94.501,147.927,94.501C147.927,94.501,876.037,94.501,876.037,94.501C876.037,94.501,929.85,93.782,939.613,146.744C948.495,195.006,1008.153,551.845,1020.496,616.891C1032.872,682.198,1010.831,690.492,980.006,721.448C980.006,721.448,979.973,721.448,979.973,721.448M719.952,439.321C719.952,439.321,719.952,387.075,667.902,387.075C667.902,387.075,355.93,387.075,355.93,387.075C303.945,387.075,303.945,439.321,303.945,439.321C303.945,439.321,303.945,543.812,303.945,543.812C303.945,543.812,376.763,543.812,376.763,543.812C376.763,543.812,376.763,460.219,376.763,460.219C376.763,460.219,647.037,460.219,647.037,460.219C647.037,460.219,647.037,543.812,647.037,543.812C647.037,543.812,719.985,543.812,719.985,543.812C719.985,543.812,719.985,439.321,719.985,439.321C719.985,439.321,719.952,439.321,719.952,439.321" class="z-files"/><glyph unicode="&#x0053;" d="M512,1024C604.887,1024,690.569,1001.114,769.008,955.343C847.447,909.571,909.571,847.447,955.343,769.008C1001.114,690.569,1024,604.887,1024,512C1024,419.113,1001.114,333.431,955.343,254.992C909.571,176.553,847.447,114.429,769.008,68.657C690.569,22.886,604.887,0,512,0C419.113,0,333.431,22.886,254.992,68.657C176.553,114.429,114.429,176.553,68.657,254.992C22.886,333.431,0,419.113,0,512C0,604.887,22.886,690.569,68.657,769.008C114.429,847.447,176.553,909.571,254.992,955.343C333.431,1001.114,419.113,1024,512,1024C512,1024,512,1024,512,1024M597.346,192.644C597.346,192.644,597.346,319.319,597.346,319.319C597.346,325.553,595.33,330.78,591.335,334.999C587.34,339.218,582.449,341.346,576.663,341.346C576.663,341.346,448.644,341.346,448.644,341.346C442.857,341.346,437.742,339.106,433.3,334.663C428.857,330.22,426.617,325.105,426.617,319.319C426.617,319.319,426.617,192.644,426.617,192.644C426.617,186.857,428.857,181.742,433.3,177.3C437.742,172.857,442.857,170.617,448.644,170.617C448.644,170.617,576.663,170.617,576.663,170.617C582.449,170.617,587.34,172.745,591.335,176.964C595.33,181.182,597.346,186.409,597.346,192.644C597.346,192.644,597.346,192.644,597.346,192.644M596.002,421.987C596.002,421.987,607.986,835.985,607.986,835.985C607.986,841.324,605.746,845.319,601.303,847.97C596.86,851.516,591.522,853.308,585.287,853.308C585.287,853.308,438.601,853.308,438.601,853.308C432.366,853.308,427.028,851.516,422.585,847.97C418.142,845.319,415.902,841.324,415.902,835.985C415.902,835.985,427.252,421.987,427.252,421.987C427.252,417.545,429.492,413.625,433.934,410.302C438.377,406.979,443.716,405.299,449.951,405.299C449.951,405.299,573.303,405.299,573.303,405.299C579.537,405.299,584.764,406.979,588.983,410.302C593.202,413.625,595.554,417.545,596.002,421.987C596.002,421.987,596.002,421.987,596.002,421.987" class="z-info"/><glyph unicode="&#x0054;" d="M128,512C177.408,512,221.952,531.2,256,561.792C256,561.792,256,256,256,256C256,256,768,256,768,256C768,256,768,561.792,768,561.792C801.984,531.2,846.656,512,896,512C896,512,896,128,896,128C896,128,128,128,128,128C128,128,128,512,128,512C128,512,128,512,128,512M896,1024C896,1024,1024,704,1024,704C1024,633.344,966.656,576,896,576C825.344,576,768,633.344,768,704C768,633.344,710.656,576,640,576C569.344,576,512,633.344,512,704C512,633.344,454.656,576,384,576C313.344,576,256,633.344,256,704C256,633.344,198.656,576,128,576C57.344,576,0,633.344,0,704C0,704,128,1024,128,1024C128,1024,896,1024,896,1024C896,1024,896,1024,896,1024M64,0C64,0,64,64,64,64C64,64,960,64,960,64C960,64,960,0,960,0C960,0,64,0,64,0C64,0,64,0,64,0" class="z-store"/><glyph unicode="&#x0056;" d="M643.972,362.534C643.972,362.534,1054.677,658.871,1009.148,998.083C1008.093,1005.538,1005.657,1010.411,1002.638,1013.72C999.438,1016.811,994.674,1019.356,987.329,1020.411C655.863,1066.885,366.289,646.653,366.289,646.653C115.044,676.799,133.336,626.652,18.714,351.37C-3.214,298.895,32.314,280.786,71.297,295.586C110.281,310.241,196.32,342.788,196.32,342.788C196.32,342.788,346.943,188.673,346.943,188.673C346.943,188.673,315.16,100.634,300.796,60.778C286.432,20.813,304.069,-15.552,355.38,6.849C624.407,124.199,673.427,105.543,643.972,362.57C643.972,362.57,643.972,362.534,643.972,362.534M702.628,706.764C667.827,742.365,667.827,800.076,702.628,835.714C737.429,871.279,793.795,871.279,828.596,835.714C863.434,800.149,863.434,742.402,828.596,706.764C793.868,671.09,737.429,671.09,702.628,706.764C702.628,706.764,702.628,706.764,702.628,706.764" class="z-rocket"/></font>
</defs>
</svg>
